# xmcd
#
# Track frame offsets: 
#        150
#        19250
#        36340
#        51687
#        62412
#        77377
#        92057
#        109112
#        122079
#        129825
#        138907
#        146007
#        163387
#        179134
#
# Disc length: 2600 seconds
#
# Revision: 0
# Processed by: cddbd v1.4PL0 Copyright (c) Steve Scherf et al.
# Submitted via: ExactAudioCopy v0.90b2
#
DISCID=c90a260e
DTITLE=ASPM - ...Az srdce useda 
DYEAR=1999
DGENRE=Blues
TTITLE0=Az srdce useda 
TTITLE1=Rozum sel buhvi kam
TTITLE2=Blues o lasce a rumu
TTITLE3=Zrzava palice
TTITLE4=Abys byl sam (jedna vanocni)
TTITLE5=Zlaty zuby zebou
TTITLE6=Dokud
TTITLE7=Evzenie (Schyzofrenicka)
TTITLE8=Pondelni rano
TTITLE9=Nemuzem to udelat hned
TTITLE10=Kde ted jsou?
TTITLE11=Tonda B II.
TTITLE12=Zluta ruze
TTITLE13=Az srdce useda (Radio Mix)
EXTD=
EXTT0=
EXTT1=
EXTT2=
EXTT3=
EXTT4=
EXTT5=
EXTT6=
EXTT7=
EXTT8=
EXTT9=
EXTT10=
EXTT11=
EXTT12=
EXTT13=
PLAYORDER=
